PathFileType	4	(X/Y/Z)	C:/Users/beibeiliu/ov580/test_trc\sequence.25_training_dense_left.trc
DataRate	CameraRate	NumFrames	NumMarkers	Units	OrigDataRate	OrigDataStartFrame	OrigNumFrames
120	120	11	19	mm	120	1	300
Frame#	Time	ThumbCMC			ThumbMCP			ThumbIP			ThumbTip			IndexMCP			IndexPIP			IndexTip			MiddleMCP			MiddlePIP			MiddleTip			RingMCP			RingPIP			RingTip			PinkyMCP			PinkyPIP			PinkyTip			BackHand1			BackHand2			BackHand3	
		X0	Y0	Z0	X1	Y1	Z1	X2	Y2	Z2	X3	Y3	Z3	X4	Y4	Z4	X5	Y5	Z5	X6	Y6	Z6	X7	Y7	Z7	X8	Y8	Z8	X9	Y9	Z9	X10	Y10	Z10	X11	Y11	Z11	X12	Y12	Z12	X13	Y13	Z13	X14	Y14	Z14	X15	Y15	Z15	X16	Y16	Z16	X17	Y17	Z17	X18	Y18	Z18	
0	0	-184.481	13.4584	36.7922	-172.701	0.674055	14.8319	-163.448	-4.33973	-7.51055	-159.201	-10.6959	-29.5233	-194.869	11.57	-31.1785	-189.798	4.21563	-50.8617	-185.942	-1.77286	-77.1947	-212.854	8.20418	-38.0311	-212.341	2.34974	-60.1056	-213.459	-3.11698	-84.275	-230.583	4.73937	-32.8773	-231.766	1.03467	-49.8063	-233.499	-2.96913	-70.1429	-252.515	-0.591185	-17.6858	-254.43	-4.5214	-31.8809	-255.457	-5.80178	-53.0612	-233.964	21.9714	8.69639	-235.403	29.3961	38.6175	-209.889	31.205	21.6031	
1	0.00833333	-185.795	13.3291	35.9302	-171.179	2.24696	15.0618	-168.056	-3.68403	-5.994	-159.745	-11.0372	-27.4892	-194.493	11.8579	-31.4911	-190.406	4.67253	-54.0248	-186.644	-1.81278	-76.9283	-211.243	8.12883	-39.5155	-210.717	3.42872	-56.6406	-212.737	-2.4198	-83.3395	-234.447	5.41128	-30.2495	-229.966	1.06027	-49.4085	-232.165	-2.14587	-74.4465	-249.035	0.442147	-13.2747	-254.942	-4.35084	-36.0378	-257.696	-3.70061	-50.54	-235.712	21.5127	13.3623	-233.966	30.5951	36.6235	-208.322	30.4848	21.0546	
2	0.0166667	-184.596	13.1273	39.3139	-170.931	2.51507	19.487	-163.043	-3.93812	-7.63712	-159.317	-10.1384	-21.4177	-187.395	11.6674	-33.2129	-188.657	5.27482	-50.3521	-180.922	0.775771	-71.409	-212.01	9.43649	-35.3666	-208.845	3.23506	-56.4558	-207.524	-0.686792	-80.1514	-227.654	7.01424	-27.044	-228.352	0.994429	-52.8311	-230.875	-1.92764	-72.4641	-249.082	1.73763	-13.723	-253.056	-3.68017	-32.8551	-254.028	-4.93396	-50.035	-234.857	22.3841	13.782	-231.739	29.1977	37.7993	-208.538	30.6178	25.1587	
3	0.025	-179.843	14.6137	35.4899	-170.029	3.31404	17.2548	-162.642	-2.96376	-4.70233	-156.03	-9.56673	-19.3907	-188.409	12.2577	-31.8985	-182.439	6.69509	-52.8374	-184.271	0.752151	-69.8625	-207.986	10.5202	-33.1945	-207.11	3.63189	-57.8333	-208.188	-0.432898	-80.2942	-225.375	7.28849	-29.1378	-227.286	1.81594	-50.7818	-226.573	-0.174097	-66.8002	-242.702	2.21578	-11.9976	-247.135	-1.00529	-32.589	-252.912	-1.97886	-49.5637	-231.196	21.5692	11.7789	-234.017	29.1798	37.1961	-205.432	31.3865	22.9649	
4	0.0333333	-182.606	13.5569	39.3999	-167.425	3.14404	15.6809	-157.954	-3.16256	-3.13366	-151.776	-9.72258	-21.3522	-184.136	14.3807	-28.4491	-182.553	8.06956	-47.7308	-177.924	2.91134	-69.083	-203.74	11.136	-38.5286	-202.513	3.67871	-59.6085	-204.172	1.27361	-78.5198	-228.344	6.45409	-28.0347	-224.485	3.06493	-52.0868	-226.953	-0.594341	-71.225	-246.548	1.38628	-13.9924	-244.059	-1.07166	-31.2614	-251.233	-2.01567	-49.8514	-230.483	23.5594	12.4204	-226.691	30.7501	36.2147	-204.346	30.5697	23.3732	
5	0.0416667	-180.833	13.5619	35.5994	-167.276	3.1521	16.8339	-159.718	-2.60266	-6.40842	-150.529	-9.9178	-22.3209	-182.186	14.2773	-26.9513	-183.871	6.00992	-51.5015	-177.395	1.94703	-68.9702	-206.533	9.72476	-37.1995	-202.383	4.84932	-56.9199	-205.92	0.0823852	-79.7835	-227.663	6.1885	-27.9536	-226.374	1.8583	-51.5896	-227.271	-1.11187	-68.0088	-243.145	2.55754	-13.7299	-243.056	-1.1595	-29.2711	-249.787	-4.80962	-48.897	-226.086	23.8755	16.2119	-227.902	29.5751	38.4521	-199.963	30.9183	25.0973	
6	0.05	-177.483	14.0249	36.5117	-164.068	2.62316	16.3741	-159.956	-4.56118	-1.54037	-152.459	-9.70154	-20.4345	-185.159	12.585	-31.4326	-179.815	6.95558	-46.9396	-179.004	1.13332	-68.949	-206.428	9.48968	-37.2438	-201.394	5.14306	-54.13	-202.924	1.31754	-81.1453	-222.134	7.17845	-25.2432	-224.155	1.85397	-48.203	-222.728	-0.0453209	-71.4363	-244.442	1.41238	-13.2503	-245.368	-3.00899	-33.9558	-248.947	-4.85093	-50.2054	-223.939	21.9108	17.2983	-228.647	29.65	40.4822	-202.64	32.3056	26.5123	
7	0.0583333	-177.01	13.9206	41.3275	-163.95	1.58272	19.6175	-155.539	-3.70923	-5.26694	-148.306	-10.5355	-20.5316	-183.487	13.3708	-30.2074	-178.376	5.63356	-51.545	-179.356	0.9899	-69.1769	-203.79	8.8199	-36.7363	-201.542	3.52883	-54.6929	-198.612	0.0554957	-83.0336	-221.169	6.79181	-26.5092	-225.682	0.614823	-48.4993	-224.404	-1.79001	-67.477	-243.577	1.7268	-15.6123	-243.084	-2.48492	-30.3912	-247.57	-6.0727	-52.8743	-228.656	21.1997	17.0899	-227.714	28.9063	38.6595	-199.08	33.0435	25.6298	
8	0.0666667	-176.49	13.023	38.0667	-164.249	1.38375	16.501	-158.98	-4.40883	-3.63448	-150.803	-10.8969	-24.5328	-182.407	13.9814	-28.1721	-178.608	6.16841	-52.6767	-172.652	0.367379	-73.7504	-202.533	9.98465	-33.8691	-202.886	2.40157	-58.5524	-200.34	-0.68587	-80.6069	-222.263	6.4972	-28.5325	-224.239	1.2759	-48.2514	-220.483	-1.00823	-70.3327	-242.463	1.71791	-11.1872	-242.163	-1.98133	-29.4709	-247.728	-4.74007	-50.7023	-224.849	20.9009	15.2249	-227.414	28.5324	41.3696	-199.755	30.5599	26.5191	
9	0.075	-177.727	12.9453	39.3878	-159.391	1.19625	16.7769	-153.002	-4.43679	-2.37404	-151.97	-11.8687	-20.9552	-180.063	13.438	-29.5341	-180.043	7.05924	-48.3597	-175.311	1.62248	-71.3642	-199.963	9.92458	-36.4489	-197.947	3.98071	-56.609	-198.623	-0.81591	-79.426	-218.034	7.28284	-29.9946	-224.044	1.91337	-46.9816	-220.975	-1.61542	-68.7557	-236.936	2.27441	-11.294	-242.806	-2.77018	-32.2595	-244.99	-4.7426	-50.1696	-226.754	21.2144	15.3521	-226.022	28.875	36.9229	-197.974	31.2537	26.9491	
10	0.0833333	-174.568	14.4757	37.2791	-160.615	2.45437	17.2691	-154.175	-3.90228	-4.57178	-148.001	-10.4722	-24.0034	-181.3	13.2034	-30.6161	-175.975	7.38769	-49.3264	-174.315	0.737561	-73.5568	-200.012	10.0528	-38.1304	-197.59	4.10215	-55.6792	-200.955	-0.897079	-79.6425	-223.185	5.86454	-28.0764	-222.247	2.07552	-47.4919	-219.388	-0.200064	-70.3125	-236.161	2.31417	-11.958	-241.363	-1.64314	-32.0713	-244.16	-4.77747	-49.7661	-225.643	21.6628	15.6427	-224.28	27.9473	36.1887	-199.24	32.2122	25.5793	
